#N canvas 949 120 1012 708 12;
#X text 30 70 Katja Vetter May 2012;
#X text 31 39 Freeverb implemented with Pd vanilla objects;
#X obj 200 317 *~ 0.015;
#X obj 76 563 *~ 1;
#X obj 317 589 *~ 1;
#X obj 113 596 *~ 1;
#X obj 278 589 *~ 1;
#X obj 208 536 r \$0-vfb-dry;
#X obj 339 540 r \$0-vfb-wet;
#X obj 97 535 r \$0-vfb-wet;
#X obj 106 255 inlet~;
#X obj 274 235 inlet~;
#X obj 76 635 outlet~;
#X obj 278 660 outlet~;
#X obj 471 268 inlet;
#X msg 782 153 0.37;
#X msg 844 147 0.771;
#X obj 681 51 loadbang;
#X msg 618 133 0.5;
#X msg 711 149 2.882;
#N canvas 261 103 1176 399 vfb-combfilters-left1 0;
#X obj 46 244 +~;
#X obj 61 219 *~ 0.3;
#X obj 61 194 lop~ 1000;
#X obj 255 244 +~;
#X obj 270 219 *~ 0.3;
#X obj 270 194 lop~ 1000;
#X obj 493 221 *~ 0.3;
#X obj 493 196 lop~ 1000;
#X obj 478 244 +~;
#X obj 695 229 *~ 0.3;
#X obj 695 204 lop~ 1000;
#X obj 680 252 +~;
#X obj 61 141 delread~ \$0-vfb-comb1left;
#X obj 270 142 delread~ \$0-vfb-comb2left;
#X obj 493 144 delread~ \$0-vfb-comb3left;
#X obj 695 152 delread~ \$0-vfb-comb4left;
#X obj 46 268 delwrite~ \$0-vfb-comb1left 100;
#X obj 255 268 delwrite~ \$0-vfb-comb2left 100;
#X obj 478 270 delwrite~ \$0-vfb-comb3left 100;
#X obj 680 278 delwrite~ \$0-vfb-comb4left 100;
#X obj 61 97 r \$0-vfb-comb1left;
#X obj 270 97 r \$0-vfb-comb2left;
#X obj 493 98 r \$0-vfb-comb3left;
#X obj 695 107 r \$0-vfb-comb4left;
#X obj 112 170 r \$0-vfb-frequency;
#X obj 321 170 r \$0-vfb-frequency;
#X obj 544 170 r \$0-vfb-frequency;
#X obj 746 178 r \$0-vfb-frequency;
#X obj 46 28 inlet~;
#X obj 338 326 outlet~;
#X obj 279 58 clip 0 0.99;
#X obj 279 29 r \$0-vfb-room;
#X obj 557 24 r \$0-vfb-clear;
#X connect 0 0 16 0;
#X connect 1 0 0 1;
#X connect 2 0 1 0;
#X connect 2 0 29 0;
#X connect 3 0 17 0;
#X connect 4 0 3 1;
#X connect 5 0 4 0;
#X connect 5 0 29 0;
#X connect 6 0 8 1;
#X connect 7 0 6 0;
#X connect 7 0 29 0;
#X connect 8 0 18 0;
#X connect 9 0 11 1;
#X connect 10 0 9 0;
#X connect 10 0 29 0;
#X connect 11 0 19 0;
#X connect 12 0 2 0;
#X connect 13 0 5 0;
#X connect 14 0 7 0;
#X connect 15 0 10 0;
#X connect 20 0 12 0;
#X connect 21 0 13 0;
#X connect 22 0 14 0;
#X connect 23 0 15 0;
#X connect 24 0 2 1;
#X connect 25 0 5 1;
#X connect 26 0 7 1;
#X connect 27 0 10 1;
#X connect 28 0 0 0;
#X connect 28 0 3 0;
#X connect 28 0 8 0;
#X connect 28 0 11 0;
#X connect 30 0 1 1;
#X connect 30 0 4 1;
#X connect 30 0 6 1;
#X connect 30 0 9 1;
#X connect 31 0 30 0;
#X connect 32 0 16 0;
#X connect 32 0 17 0;
#X connect 32 0 18 0;
#X connect 32 0 19 0;
#X restore 76 367 pd vfb-combfilters-left1;
#N canvas 312 366 1053 369 vfb-combfilters-left2 0;
#X obj 46 244 +~;
#X obj 61 219 *~ 0.3;
#X obj 61 194 lop~ 1000;
#X obj 251 244 +~;
#X obj 266 219 *~ 0.3;
#X obj 266 194 lop~ 1000;
#X obj 483 218 *~ 0.3;
#X obj 483 193 lop~ 1000;
#X obj 468 241 +~;
#X obj 684 218 *~ 0.3;
#X obj 684 193 lop~ 1000;
#X obj 669 241 +~;
#X obj 112 170 r \$0-vfb-frequency;
#X obj 317 170 r \$0-vfb-frequency;
#X obj 534 167 r \$0-vfb-frequency;
#X obj 735 167 r \$0-vfb-frequency;
#X obj 46 28 inlet~;
#X obj 338 326 outlet~;
#X obj 61 90 r \$0-vfb-comb5left;
#X obj 61 141 delread~ \$0-vfb-comb5left;
#X obj 46 268 delwrite~ \$0-vfb-comb5left 100;
#X obj 266 90 r \$0-vfb-comb6left;
#X obj 266 142 delread~ \$0-vfb-comb6left;
#X obj 251 268 delwrite~ \$0-vfb-comb6left 100;
#X obj 483 88 r \$0-vfb-comb7left;
#X obj 483 141 delread~ \$0-vfb-comb7left;
#X obj 468 267 delwrite~ \$0-vfb-comb7left 100;
#X obj 684 89 r \$0-vfb-comb8left;
#X obj 684 141 delread~ \$0-vfb-comb8left;
#X obj 669 267 delwrite~ \$0-vfb-comb8left 100;
#X obj 279 58 clip 0 0.99;
#X obj 279 28 r \$0-vfb-room;
#X obj 571 20 r \$0-vfb-clear;
#X connect 0 0 20 0;
#X connect 1 0 0 1;
#X connect 2 0 1 0;
#X connect 2 0 17 0;
#X connect 3 0 23 0;
#X connect 4 0 3 1;
#X connect 5 0 4 0;
#X connect 5 0 17 0;
#X connect 6 0 8 1;
#X connect 7 0 6 0;
#X connect 7 0 17 0;
#X connect 8 0 26 0;
#X connect 9 0 11 1;
#X connect 10 0 9 0;
#X connect 10 0 17 0;
#X connect 11 0 29 0;
#X connect 12 0 2 1;
#X connect 13 0 5 1;
#X connect 14 0 7 1;
#X connect 15 0 10 1;
#X connect 16 0 0 0;
#X connect 16 0 3 0;
#X connect 16 0 8 0;
#X connect 16 0 11 0;
#X connect 18 0 19 0;
#X connect 19 0 2 0;
#X connect 21 0 22 0;
#X connect 22 0 5 0;
#X connect 24 0 25 0;
#X connect 25 0 7 0;
#X connect 27 0 28 0;
#X connect 28 0 10 0;
#X connect 30 0 1 1;
#X connect 30 0 4 1;
#X connect 30 0 6 1;
#X connect 30 0 9 1;
#X connect 31 0 30 0;
#X connect 32 0 20 0;
#X connect 32 0 23 0;
#X connect 32 0 26 0;
#X connect 32 0 29 0;
#X restore 97 401 pd vfb-combfilters-left2;
#N canvas 27 103 358 650 vfb-diffusor-left 0;
#X obj 51 107 *~ 0.5;
#X obj 36 132 +~;
#X obj 66 132 -~;
#X obj 36 26 inlet~;
#X obj 81 238 *~ 0.5;
#X obj 66 263 +~;
#X obj 96 263 -~;
#X obj 111 368 *~ 0.5;
#X obj 96 393 +~;
#X obj 126 393 -~;
#X obj 141 498 *~ 0.5;
#X obj 126 523 +~;
#X obj 156 523 -~;
#X obj 156 605 outlet~;
#X text 95 28 freeverb's diffusor;
#X obj 156 576 hip~ 5;
#X obj 51 53 r \$0-vfb-allpass1left;
#X obj 51 80 delread~ \$0-vfb-allpass1left;
#X obj 36 158 delwrite~ \$0-vfb-allpass1left 40;
#X obj 81 186 r \$0-vfb-allpass2left;
#X obj 81 211 delread~ \$0-vfb-allpass2left;
#X obj 66 290 delwrite~ \$0-vfb-allpass2left 40;
#X obj 111 317 r \$0-vfb-allpass3left;
#X obj 111 341 delread~ \$0-vfb-allpass3left;
#X obj 96 420 delwrite~ \$0-vfb-allpass3left 40;
#X obj 141 447 r \$0-vfb-allpass4left;
#X obj 141 471 delread~ \$0-vfb-allpass4left;
#X obj 126 550 delwrite~ \$0-vfb-allpass4left 40;
#X obj 227 108 r \$0-vfb-clear;
#X connect 0 0 1 1;
#X connect 1 0 18 0;
#X connect 2 0 5 0;
#X connect 2 0 6 1;
#X connect 3 0 1 0;
#X connect 3 0 2 1;
#X connect 4 0 5 1;
#X connect 5 0 21 0;
#X connect 6 0 8 0;
#X connect 6 0 9 1;
#X connect 7 0 8 1;
#X connect 8 0 24 0;
#X connect 9 0 11 0;
#X connect 9 0 12 1;
#X connect 10 0 11 1;
#X connect 11 0 27 0;
#X connect 12 0 15 0;
#X connect 15 0 13 0;
#X connect 16 0 17 0;
#X connect 17 0 0 0;
#X connect 17 0 2 0;
#X connect 19 0 20 0;
#X connect 20 0 4 0;
#X connect 20 0 6 0;
#X connect 22 0 23 0;
#X connect 23 0 7 0;
#X connect 23 0 9 0;
#X connect 25 0 26 0;
#X connect 26 0 10 0;
#X connect 26 0 12 0;
#X connect 28 0 18 0;
#X connect 28 0 21 0;
#X connect 28 0 24 0;
#X connect 28 0 27 0;
#X restore 76 435 pd vfb-diffusor-left;
#N canvas 261 103 1047 431 vfb-combfilters-right1 0;
#X obj 46 244 +~;
#X obj 61 219 *~ 0.3;
#X obj 61 194 lop~ 1000;
#X obj 263 244 +~;
#X obj 278 219 *~ 0.3;
#X obj 278 194 lop~ 1000;
#X obj 488 218 *~ 0.3;
#X obj 488 193 lop~ 1000;
#X obj 473 241 +~;
#X obj 724 218 *~ 0.3;
#X obj 724 193 lop~ 1000;
#X obj 709 241 +~;
#X obj 112 170 r \$0-vfb-frequency;
#X obj 329 170 r \$0-vfb-frequency;
#X obj 539 167 r \$0-vfb-frequency;
#X obj 775 167 r \$0-vfb-frequency;
#X obj 46 28 inlet~;
#X obj 338 326 outlet~;
#X obj 61 141 delread~ \$0-vfb-comb1right;
#X obj 278 142 delread~ \$0-vfb-comb2right;
#X obj 488 141 delread~ \$0-vfb-comb3right;
#X obj 724 141 delread~ \$0-vfb-comb4right;
#X obj 61 97 r \$0-vfb-comb1right;
#X obj 278 97 r \$0-vfb-comb2right;
#X obj 488 95 r \$0-vfb-comb3right;
#X obj 724 97 r \$0-vfb-comb4right;
#X obj 46 268 delwrite~ \$0-vfb-comb1right 100;
#X obj 263 268 delwrite~ \$0-vfb-comb2right 100;
#X obj 473 267 delwrite~ \$0-vfb-comb3right 100;
#X obj 709 267 delwrite~ \$0-vfb-comb4right 100;
#X obj 279 58 clip 0 0.99;
#X obj 279 28 r \$0-vfb-room;
#X obj 572 26 r \$0-vfb-clear;
#X connect 0 0 26 0;
#X connect 1 0 0 1;
#X connect 2 0 1 0;
#X connect 2 0 17 0;
#X connect 3 0 27 0;
#X connect 4 0 3 1;
#X connect 5 0 4 0;
#X connect 5 0 17 0;
#X connect 6 0 8 1;
#X connect 7 0 6 0;
#X connect 7 0 17 0;
#X connect 8 0 28 0;
#X connect 9 0 11 1;
#X connect 10 0 9 0;
#X connect 10 0 17 0;
#X connect 11 0 29 0;
#X connect 12 0 2 1;
#X connect 13 0 5 1;
#X connect 14 0 7 1;
#X connect 15 0 10 1;
#X connect 16 0 0 0;
#X connect 16 0 3 0;
#X connect 16 0 8 0;
#X connect 16 0 11 0;
#X connect 18 0 2 0;
#X connect 19 0 5 0;
#X connect 20 0 7 0;
#X connect 21 0 10 0;
#X connect 22 0 18 0;
#X connect 23 0 19 0;
#X connect 24 0 20 0;
#X connect 25 0 21 0;
#X connect 30 0 1 1;
#X connect 30 0 4 1;
#X connect 30 0 6 1;
#X connect 30 0 9 1;
#X connect 31 0 30 0;
#X connect 32 0 26 0;
#X connect 32 0 27 0;
#X connect 32 0 28 0;
#X connect 32 0 29 0;
#X restore 269 366 pd vfb-combfilters-right1;
#N canvas 239 418 1138 375 vfb-combfilters-right2 0;
#X obj 46 244 +~;
#X obj 61 219 *~ 0.3;
#X obj 61 194 lop~ 1000;
#X obj 258 252 +~;
#X obj 273 227 *~ 0.3;
#X obj 273 202 lop~ 1000;
#X obj 511 229 *~ 0.3;
#X obj 511 204 lop~ 1000;
#X obj 496 252 +~;
#X obj 730 228 *~ 0.3;
#X obj 730 203 lop~ 1000;
#X obj 715 251 +~;
#X obj 112 170 r \$0-vfb-frequency;
#X obj 324 178 r \$0-vfb-frequency;
#X obj 562 178 r \$0-vfb-frequency;
#X obj 781 177 r \$0-vfb-frequency;
#X obj 46 28 inlet~;
#X obj 338 326 outlet~;
#X obj 279 58 clip 0 0.99;
#X obj 61 90 r \$0-vfb-comb5right;
#X obj 273 98 r \$0-vfb-comb6right;
#X obj 511 99 r \$0-vfb-comb7right;
#X obj 730 99 r \$0-vfb-comb8right;
#X obj 61 141 delread~ \$0-vfb-comb5right;
#X obj 273 150 delread~ \$0-vfb-comb6right;
#X obj 511 152 delread~ \$0-vfb-comb7right;
#X obj 730 151 delread~ \$0-vfb-comb8right;
#X obj 43 278 delwrite~ \$0-vfb-comb5right 100;
#X obj 258 276 delwrite~ \$0-vfb-comb6right 100;
#X obj 496 278 delwrite~ \$0-vfb-comb7right 100;
#X obj 715 277 delwrite~ \$0-vfb-comb8right 100;
#X obj 279 28 r \$0-vfb-room;
#X obj 626 40 r \$0-vfb-clear;
#X connect 0 0 27 0;
#X connect 1 0 0 1;
#X connect 2 0 1 0;
#X connect 2 0 17 0;
#X connect 3 0 28 0;
#X connect 4 0 3 1;
#X connect 5 0 4 0;
#X connect 5 0 17 0;
#X connect 6 0 8 1;
#X connect 7 0 6 0;
#X connect 7 0 17 0;
#X connect 8 0 29 0;
#X connect 9 0 11 1;
#X connect 10 0 9 0;
#X connect 10 0 17 0;
#X connect 11 0 30 0;
#X connect 12 0 2 1;
#X connect 13 0 5 1;
#X connect 14 0 7 1;
#X connect 15 0 10 1;
#X connect 16 0 0 0;
#X connect 16 0 3 0;
#X connect 16 0 8 0;
#X connect 16 0 11 0;
#X connect 18 0 1 1;
#X connect 18 0 4 1;
#X connect 18 0 6 1;
#X connect 18 0 9 1;
#X connect 19 0 23 0;
#X connect 20 0 24 0;
#X connect 21 0 25 0;
#X connect 22 0 26 0;
#X connect 23 0 2 0;
#X connect 24 0 5 0;
#X connect 25 0 7 0;
#X connect 26 0 10 0;
#X connect 31 0 18 0;
#X connect 32 0 27 0;
#X connect 32 0 28 0;
#X connect 32 0 29 0;
#X connect 32 0 30 0;
#X restore 286 400 pd vfb-combfilters-right2;
#N canvas 27 103 399 650 vfb-diffusor-right 0;
#X obj 51 107 *~ 0.5;
#X obj 36 132 +~;
#X obj 66 132 -~;
#X obj 36 26 inlet~;
#X obj 81 238 *~ 0.5;
#X obj 66 263 +~;
#X obj 96 263 -~;
#X obj 111 368 *~ 0.5;
#X obj 96 393 +~;
#X obj 126 393 -~;
#X obj 141 498 *~ 0.5;
#X obj 126 523 +~;
#X obj 156 523 -~;
#X obj 156 605 outlet~;
#X text 95 28 freeverb's diffusor;
#X obj 156 576 hip~ 5;
#X obj 51 53 r \$0-vfb-allpass1right;
#X obj 51 80 delread~ \$0-vfb-allpass1right;
#X obj 36 158 delwrite~ \$0-vfb-allpass1right 40;
#X obj 81 186 r \$0-vfb-allpass2right;
#X obj 81 211 delread~ \$0-vfb-allpass2right;
#X obj 66 290 delwrite~ \$0-vfb-allpass2right 40;
#X obj 111 317 r \$0-vfb-allpass3right;
#X obj 111 341 delread~ \$0-vfb-allpass3right;
#X obj 96 420 delwrite~ \$0-vfb-allpass3right 40;
#X obj 141 447 r \$0-vfb-allpass4right;
#X obj 141 471 delread~ \$0-vfb-allpass4right;
#X obj 126 550 delwrite~ \$0-vfb-allpass4right 40;
#X obj 253 117 r \$0-vfb-clear;
#X connect 0 0 1 1;
#X connect 1 0 18 0;
#X connect 2 0 5 0;
#X connect 2 0 6 1;
#X connect 3 0 1 0;
#X connect 3 0 2 1;
#X connect 4 0 5 1;
#X connect 5 0 21 0;
#X connect 6 0 8 0;
#X connect 6 0 9 1;
#X connect 7 0 8 1;
#X connect 8 0 24 0;
#X connect 9 0 11 0;
#X connect 9 0 12 1;
#X connect 10 0 11 1;
#X connect 11 0 27 0;
#X connect 12 0 15 0;
#X connect 15 0 13 0;
#X connect 16 0 17 0;
#X connect 17 0 0 0;
#X connect 17 0 2 0;
#X connect 19 0 20 0;
#X connect 20 0 4 0;
#X connect 20 0 6 0;
#X connect 22 0 23 0;
#X connect 23 0 7 0;
#X connect 23 0 9 0;
#X connect 25 0 26 0;
#X connect 26 0 10 0;
#X connect 26 0 12 0;
#X connect 28 0 18 0;
#X connect 28 0 21 0;
#X connect 28 0 24 0;
#X connect 28 0 27 0;
#X restore 269 436 pd vfb-diffusor-right;
#N canvas 405 103 635 684 vfb-tuning 0;
#X msg 332 81 1139 \, 1211 \, 1300 \, 1379 \, 1445 \, 1514 \, 1580
\, 1640;
#X text 72 57 combfilter tunings left;
#X text 377 56 combfilter tunings right;
#X text 71 360 allpass tunings left;
#X text 383 355 allpass tunings right;
#N canvas 243 170 195 233 sampstoms 0;
#X obj 27 21 inlet;
#X obj 54 86 samplerate~;
#X obj 27 111 /;
#X obj 27 57 t f b;
#X obj 27 136 * 1000;
#X obj 27 162 outlet;
#X connect 0 0 3 0;
#X connect 1 0 2 1;
#X connect 2 0 4 0;
#X connect 3 0 2 0;
#X connect 3 1 1 0;
#X connect 4 0 5 0;
#X restore 30 107 pd sampstoms;
#X msg 30 82 1116 \, 1188 \, 1277 \, 1356 \, 1422 \, 1491 \, 1557 \,
1617;
#X obj 57 188 +;
#X msg 57 159 1;
#X obj 30 135 t f b;
#X obj 87 188 f;
#X obj 30 56 t b b;
#X msg 87 159 0;
#X obj 57 212 pack f \$0;
#X msg 57 238 \$2-comb\$1left;
#X obj 30 282 s;
#X obj 57 265 symbol;
#N canvas 0 50 195 233 sampstoms 0;
#X obj 27 21 inlet;
#X obj 54 86 samplerate~;
#X obj 27 111 /;
#X obj 27 57 t f b;
#X obj 27 136 * 1000;
#X obj 27 162 outlet;
#X connect 0 0 3 0;
#X connect 1 0 2 1;
#X connect 2 0 4 0;
#X connect 3 0 2 0;
#X connect 3 1 1 0;
#X connect 4 0 5 0;
#X restore 332 107 pd sampstoms;
#X obj 359 188 +;
#X msg 359 159 1;
#X obj 332 135 t f b;
#X obj 389 188 f;
#X msg 389 159 0;
#X obj 359 212 pack f \$0;
#X obj 332 282 s;
#X obj 359 265 symbol;
#X obj 332 56 t b b;
#X msg 359 238 \$2-comb\$1right;
#X obj 30 360 t b b;
#N canvas 0 50 195 233 sampstoms 0;
#X obj 27 21 inlet;
#X obj 54 86 samplerate~;
#X obj 27 111 /;
#X obj 27 57 t f b;
#X obj 27 136 * 1000;
#X obj 27 162 outlet;
#X connect 0 0 3 0;
#X connect 1 0 2 1;
#X connect 2 0 4 0;
#X connect 3 0 2 0;
#X connect 3 1 1 0;
#X connect 4 0 5 0;
#X restore 30 411 pd sampstoms;
#X obj 57 492 +;
#X msg 57 463 1;
#X obj 30 439 t f b;
#X obj 87 492 f;
#X msg 87 463 0;
#X obj 57 516 pack f \$0;
#X obj 30 586 s;
#X obj 57 569 symbol;
#X obj 334 356 t b b;
#N canvas 0 50 195 233 sampstoms 0;
#X obj 27 21 inlet;
#X obj 54 86 samplerate~;
#X obj 27 111 /;
#X obj 27 57 t f b;
#X obj 27 136 * 1000;
#X obj 27 162 outlet;
#X connect 0 0 3 0;
#X connect 1 0 2 1;
#X connect 2 0 4 0;
#X connect 3 0 2 0;
#X connect 3 1 1 0;
#X connect 4 0 5 0;
#X restore 334 407 pd sampstoms;
#X obj 361 488 +;
#X msg 361 459 1;
#X obj 334 435 t f b;
#X obj 391 488 f;
#X msg 391 459 0;
#X obj 361 512 pack f \$0;
#X obj 334 582 s;
#X obj 361 565 symbol;
#X obj 30 22 loadbang;
#X obj 332 27 loadbang;
#X obj 30 334 loadbang;
#X obj 334 331 loadbang;
#X obj 268 41 bng 15 250 50 0 empty empty empty 17 7 0 10 -262144 -1
-1;
#X msg 30 386 225 \, 556 \, 441 \, 341;
#X msg 334 380 248 \, 579 \, 464 \, 364;
#X msg 57 542 \$2-allpass\$1left;
#X msg 361 539 \$2-allpass\$1right;
#X text 27 624 Original Freeverb delay line lengths are converted to
milliseconds \, based on samplerate.;
#X connect 0 0 17 0;
#X connect 5 0 9 0;
#X connect 6 0 5 0;
#X connect 7 0 10 0;
#X connect 7 0 13 0;
#X connect 8 0 7 0;
#X connect 9 0 15 0;
#X connect 9 1 8 0;
#X connect 10 0 7 1;
#X connect 11 0 6 0;
#X connect 11 1 12 0;
#X connect 12 0 10 0;
#X connect 13 0 14 0;
#X connect 14 0 16 0;
#X connect 16 0 15 1;
#X connect 17 0 20 0;
#X connect 18 0 21 0;
#X connect 18 0 23 0;
#X connect 19 0 18 0;
#X connect 20 0 24 0;
#X connect 20 1 19 0;
#X connect 21 0 18 1;
#X connect 22 0 21 0;
#X connect 23 0 27 0;
#X connect 25 0 24 1;
#X connect 26 0 0 0;
#X connect 26 1 22 0;
#X connect 27 0 25 0;
#X connect 28 0 53 0;
#X connect 28 1 34 0;
#X connect 29 0 32 0;
#X connect 30 0 33 0;
#X connect 30 0 35 0;
#X connect 31 0 30 0;
#X connect 32 0 36 0;
#X connect 32 1 31 0;
#X connect 33 0 30 1;
#X connect 34 0 33 0;
#X connect 35 0 55 0;
#X connect 37 0 36 1;
#X connect 38 0 54 0;
#X connect 38 1 44 0;
#X connect 39 0 42 0;
#X connect 40 0 43 0;
#X connect 40 0 45 0;
#X connect 41 0 40 0;
#X connect 42 0 46 0;
#X connect 42 1 41 0;
#X connect 43 0 40 1;
#X connect 44 0 43 0;
#X connect 45 0 56 0;
#X connect 47 0 46 1;
#X connect 48 0 11 0;
#X connect 49 0 26 0;
#X connect 50 0 28 0;
#X connect 51 0 38 0;
#X connect 52 0 11 0;
#X connect 52 0 28 0;
#X connect 52 0 26 0;
#X connect 52 0 38 0;
#X connect 53 0 29 0;
#X connect 54 0 39 0;
#X connect 55 0 37 0;
#X connect 56 0 47 0;
#X restore 549 269 pd vfb-tuning;
#N canvas 3 130 207 207 vfb-room 0;
#X obj 32 35 inlet;
#X obj 32 63 * 0.28;
#X obj 32 94 + 0.7;
#X obj 32 160 outlet;
#X text 80 65 scaleroom;
#X text 76 94 offsetroom;
#X obj 47 126 s \$0-vfb-room;
#X connect 0 0 1 0;
#X connect 1 0 2 0;
#X connect 2 0 3 0;
#X connect 2 0 6 0;
#X restore 498 454 pd vfb-room;
#N canvas 684 196 244 376 vfb-frequency 0;
#X obj 60 222 samplerate~;
#X obj 33 8 inlet;
#X obj 33 194 t f b;
#X obj 33 249 *;
#X obj 53 303 s \$0-vfb-frequency;
#X obj 33 327 outlet;
#X obj 33 64 * 0.4;
#X text 76 66 scaledamp;
#X obj 33 90 t b f;
#X obj 33 141 -;
#X msg 33 116 1;
#X obj 33 168 abs;
#X obj 33 275 * 0.5;
#X text 153 303 for [lop~];
#X obj 33 38 clip 0 2.4;
#X connect 0 0 3 1;
#X connect 1 0 14 0;
#X connect 2 0 3 0;
#X connect 2 1 0 0;
#X connect 3 0 12 0;
#X connect 6 0 8 0;
#X connect 8 0 10 0;
#X connect 8 1 9 1;
#X connect 9 0 11 0;
#X connect 10 0 9 0;
#X connect 11 0 2 0;
#X connect 12 0 5 0;
#X connect 12 0 4 0;
#X connect 14 0 6 0;
#X restore 567 415 pd vfb-frequency;
#N canvas 0 50 220 198 vfb-scaledry 0;
#X obj 32 74 * 2;
#X obj 32 40 inlet;
#X obj 32 141 outlet;
#X text 58 75 scaledry;
#X obj 41 105 s \$0-vfb-dry;
#X connect 0 0 2 0;
#X connect 0 0 4 0;
#X connect 1 0 0 0;
#X restore 687 454 pd vfb-scaledry;
#N canvas 0 50 170 187 vfb-scalewet 0;
#X obj 22 42 inlet;
#X obj 22 143 outlet;
#X obj 22 73 * 3;
#X text 49 74 scalewet;
#X obj 40 112 s \$0-vfb-wet;
#X connect 0 0 2 0;
#X connect 2 0 1 0;
#X connect 2 0 4 0;
#X restore 800 417 pd vfb-scalewet;
#X msg 840 335 clear;
#X text 29 105 some minor cleanup done by Derek Kwan 2018;
#X text 34 128 (incl. adding clear);
#X obj 471 296 route room damp dry wet clear, f 66;
#X obj 855 364 s \$0-vfb-clear;
#X connect 2 0 23 0;
#X connect 2 0 20 0;
#X connect 2 0 24 0;
#X connect 2 0 21 0;
#X connect 3 0 12 0;
#X connect 4 0 13 0;
#X connect 5 0 12 0;
#X connect 6 0 13 0;
#X connect 7 0 6 1;
#X connect 7 0 5 1;
#X connect 8 0 4 1;
#X connect 9 0 3 1;
#X connect 10 0 2 0;
#X connect 10 0 5 0;
#X connect 11 0 2 0;
#X connect 11 0 6 0;
#X connect 14 0 34 0;
#X connect 15 0 29 0;
#X connect 16 0 30 0;
#X connect 17 0 18 0;
#X connect 17 0 19 0;
#X connect 17 0 15 0;
#X connect 17 0 16 0;
#X connect 18 0 27 0;
#X connect 19 0 28 0;
#X connect 20 0 22 0;
#X connect 21 0 22 0;
#X connect 22 0 3 0;
#X connect 23 0 25 0;
#X connect 24 0 25 0;
#X connect 25 0 4 0;
#X connect 31 0 35 0;
#X connect 34 0 27 0;
#X connect 34 1 28 0;
#X connect 34 2 29 0;
#X connect 34 3 30 0;
#X connect 34 4 31 0;
